<svg width="32" height="24" viewBox="0 0 32 24" fill="none" xmlns="http://www.w3.org/2000/svg">
<mask id="mask0_8010_5" style="mask-type:luminance" maskUnits="userSpaceOnUse" x="0" y="0" width="32" height="24">
<path d="M-1.04907e-06 24L0 0L32 1.39876e-06L32 24L-1.04907e-06 24Z" fill="white"/>
</mask>
<g mask="url(#mask0_8010_5)">
<path d="M13.6091 13.3877C13.6091 12.8429 13.3766 12.3205 12.9628 11.9353C12.5489 11.5501 11.9876 11.3337 11.4022 11.3337C10.8169 11.3337 10.2556 11.5501 9.84173 11.9353C9.42786 12.3205 9.19535 12.8429 9.19535 13.3877C9.19331 15.1122 8.45639 16.7654 7.14629 17.9849C5.83617 19.2042 4.05985 19.8902 2.20702 19.8922C1.62172 19.8922 1.06038 20.1086 0.646508 20.4938C0.232635 20.8789 0.00012163 21.4014 0.000121606 21.9461C0.000121583 22.491 0.232634 23.0135 0.646508 23.3986C1.06038 23.7838 1.62172 24.0002 2.20702 24.0002C5.23004 23.997 8.12827 22.8779 10.2658 20.8884C12.4034 18.8988 13.6058 16.2013 13.6091 13.3877Z" fill="#EC6C0C"/>
<path d="M32 2.05387C32 1.50909 31.7675 0.986626 31.3536 0.60141C30.9396 0.216194 30.3784 -0.000220728 29.793 -0.000220754C26.77 0.00294244 23.8717 1.12207 21.7341 3.11162C19.5964 5.10118 18.3941 7.79867 18.3907 10.6123C18.3907 11.1571 18.6232 11.6795 19.0372 12.0647C19.451 12.4499 20.0123 12.6663 20.5977 12.6663C21.183 12.6663 21.7443 12.4499 22.1581 12.0647C22.5721 11.6795 22.8045 11.1571 22.8045 10.6123C22.8067 8.88781 23.5436 7.23452 24.8537 6.01512C26.1639 4.79572 27.9402 4.10978 29.793 4.10781C30.3783 4.10781 30.9396 3.89142 31.3536 3.50624C31.7675 3.12105 32 2.59862 32 2.05387Z" fill="#BE3818"/>
<path d="M32 13.3878C31.9952 12.846 31.7606 12.3279 31.3473 11.9463C30.9339 11.5648 30.3753 11.3507 29.7931 11.3507C29.211 11.3507 28.6523 11.5648 28.239 11.9463C27.8257 12.3279 27.5911 12.846 27.5862 13.3878C27.5862 14.2419 27.4054 15.0878 27.0543 15.8769C26.7031 16.6661 26.1882 17.383 25.5394 17.9871C24.8904 18.5911 24.12 19.0702 23.2722 19.3971C22.4242 19.724 21.5154 19.8921 20.5976 19.8921C19.6799 19.8921 18.7712 19.724 17.9232 19.3971C17.0754 19.0702 16.305 18.5911 15.656 17.9871C15.0071 17.383 14.4923 16.6661 14.1411 15.8769C13.7899 15.0878 13.6091 14.2419 13.6091 13.3878C13.6091 12.843 13.3766 12.3206 12.9627 11.9354C12.5489 11.5502 11.9875 11.3338 11.4022 11.3338C10.8169 11.3338 10.2556 11.5502 9.84172 11.9354C9.42784 12.3206 9.19533 12.843 9.19533 13.3878C9.18987 14.7847 9.48077 16.1688 10.0513 17.4608C10.6219 18.753 11.4609 19.9274 12.5203 20.9168C13.5796 21.9064 14.8385 22.6917 16.2246 23.2274C17.6107 23.7631 19.0967 24.039 20.5976 24.039C22.0985 24.039 23.5847 23.7631 24.9708 23.2274C26.3568 22.6917 27.6157 21.9064 28.675 20.9168C29.7345 19.9274 30.5735 18.753 31.1441 17.4608C31.7147 16.1688 32.0055 14.7847 32 13.3878Z" fill="url(#paint0_linear_8010_5)"/>
<path d="M10.4178 20.7435C9.356 21.7737 8.08118 22.5934 6.67012 23.153C5.25904 23.7128 3.74088 24.0009 2.20702 24.0002C1.62172 24.0002 1.06038 23.7838 0.646508 23.3985C0.232635 23.0134 0.000121823 22.4909 0.000121846 21.9462C0.00012187 21.4014 0.232635 20.8789 0.646508 20.4938C1.06038 20.1085 1.62172 19.8921 2.20702 19.8921C3.39414 19.8916 4.56156 19.6097 5.59918 19.0728C6.6368 18.5361 7.51044 17.7623 8.13771 16.8242C8.59075 18.2662 9.36796 19.6022 10.4178 20.7435Z" fill="url(#paint1_linear_8010_5)"/>
<path d="M22.8045 10.6126C22.8045 7.79802 21.6032 5.09871 19.4649 3.10852C17.3266 1.11831 14.4263 0.000221883 11.4023 0.000221751C8.3782 0.000221619 5.47799 1.11831 3.33965 3.10852C1.20131 5.09871 -3.40852e-07 7.79802 -4.63882e-07 10.6126C-4.87694e-07 11.1574 0.232512 11.6798 0.646385 12.065C1.06026 12.4502 1.62159 12.6666 2.2069 12.6666C2.7922 12.6666 3.35353 12.4502 3.76742 12.065C4.18129 11.6798 4.4138 11.1574 4.4138 10.6126C4.4138 9.75843 4.59455 8.91264 4.94576 8.1235C5.29697 7.33435 5.81174 6.61732 6.46067 6.01333C7.10962 5.40935 7.88001 4.93024 8.72791 4.60337C9.57578 4.27649 10.4845 4.10826 11.4023 4.10826C12.32 4.10826 13.2288 4.27649 14.0766 4.60337C14.9245 4.93024 15.6949 5.40935 16.3439 6.01333C16.9928 6.61732 17.5076 7.33435 17.8588 8.1235C18.2099 8.91264 18.3908 9.75843 18.3908 10.6126C18.3908 11.1574 18.6232 11.6798 19.0372 12.065C19.451 12.4502 20.0123 12.6666 20.5976 12.6666C21.183 12.6666 21.7443 12.4502 22.1581 12.065C22.5721 11.6798 22.8045 11.1574 22.8045 10.6126Z" fill="url(#paint2_linear_8010_5)"/>
<path d="M21.5822 3.25666C22.644 2.22637 23.9187 1.4067 25.3299 0.847001C26.741 0.287297 28.2591 -0.000870273 29.7931 -0.000150587C30.0845 -0.00239413 30.3733 0.0490785 30.6433 0.151297C30.9131 0.253515 31.1586 0.404457 31.3654 0.595413C31.5724 0.786369 31.7366 1.01356 31.8485 1.26388C31.9606 1.5142 32.0183 1.78269 32.0183 2.05386C32.0183 2.32505 31.9606 2.59354 31.8485 2.84386C31.7366 3.09418 31.5724 3.32137 31.3654 3.51232C31.1586 3.70328 30.9131 3.85421 30.6433 3.95643C30.3733 4.05865 30.0845 4.11013 29.7931 4.10788C28.606 4.10843 27.4385 4.39039 26.4008 4.92719C25.3631 5.46398 24.4895 6.23792 23.8622 7.176C23.4092 5.73394 22.6319 4.39797 21.5822 3.25666Z" fill="#E64A1A"/>
</g>
<defs>
<linearGradient id="paint0_linear_8010_5" x1="32" y1="17.6863" x2="9.19525" y2="17.6863" gradientUnits="userSpaceOnUse">
<stop stop-color="#E9592D"/>
<stop offset="1" stop-color="#F39519"/>
</linearGradient>
<linearGradient id="paint1_linear_8010_5" x1="9.34479" y1="18.7688" x2="3.18696" y2="25.7479" gradientUnits="userSpaceOnUse">
<stop offset="0.005" stop-color="#F39519"/>
<stop offset="0.146" stop-color="#F39519"/>
<stop offset="1" stop-color="#F39519"/>
</linearGradient>
<linearGradient id="paint2_linear_8010_5" x1="22.8045" y1="6.33342" x2="-2.76833e-07" y2="6.33341" gradientUnits="userSpaceOnUse">
<stop stop-color="#E9592D"/>
<stop offset="1" stop-color="#F39519"/>
</linearGradient>
</defs>
</svg>
